<svg width="63" height="63" viewBox="0 0 63 63" fill="none" xmlns="http://www.w3.org/2000/svg">
<g id="logo">
<circle id="Ellipse 872" cx="31.5" cy="31.5" r="31.5" fill="white"/>
<g id="Group 1">
<path id="Vector" fill-rule="evenodd" clip-rule="evenodd" d="M27.2432 12.3436L31.4082 10L50.58 20.783L46.4149 23.1266L27.2432 12.3436Z" fill="#1B4DB3"/>
<path id="Vector_2" fill-rule="evenodd" clip-rule="evenodd" d="M23.0791 14.6873L27.2442 12.3438L40.1683 19.6114L36.0032 21.955L23.0791 14.6873Z" fill="#0E3992"/>
<path id="Vector_3" fill-rule="evenodd" clip-rule="evenodd" d="M18.9136 17.0268L23.0786 14.6875L27.2437 17.0268L23.0786 19.3703L18.9136 17.0268Z" fill="#042A79"/>
<path id="Vector_4" fill-rule="evenodd" clip-rule="evenodd" d="M25.1606 22.8853L29.3257 20.5417L40.1673 26.6419L36.0022 28.9855L25.1606 22.8853Z" fill="#042A79"/>
<path id="Vector_5" fill-rule="evenodd" clip-rule="evenodd" d="M36.0024 24.2983L40.1675 21.9547L44.3326 24.2983L50.5802 20.783V25.4701L44.3326 28.9855L36.0024 24.2983Z" fill="#0E3992"/>
<path id="Vector_6" fill-rule="evenodd" clip-rule="evenodd" d="M50.5809 37.6663V42.3534L31.4092 53.1365V48.4536L50.5809 37.6663Z" fill="#1B4DB3"/>
<path id="Vector_7" fill-rule="evenodd" clip-rule="evenodd" d="M50.5804 32.9834V37.6662L37.6562 44.9382V40.2511L50.5804 32.9834Z" fill="#0E3992"/>
<path id="Vector_8" fill-rule="evenodd" clip-rule="evenodd" d="M50.5801 28.2961V32.9833L46.415 35.3226V30.6397L50.5801 28.2961Z" fill="#042A79"/>
<path id="Vector_9" fill-rule="evenodd" clip-rule="evenodd" d="M42.2508 30.6399V35.3227L31.4092 41.4229V36.7358L42.2508 30.6399Z" fill="#042A79"/>
<path id="Vector_10" fill-rule="evenodd" clip-rule="evenodd" d="M35.5738 39.0793V43.7665L31.4087 46.1101V53.1365L27.2437 50.7929V43.7665L35.5738 39.0793Z" fill="#0E3992"/>
<path id="Vector_11" fill-rule="evenodd" clip-rule="evenodd" d="M16.4019 44.6972L12.2368 42.3536V20.7832L16.4019 23.1268V44.6972Z" fill="#1B4DB3"/>
<path id="Vector_12" fill-rule="evenodd" clip-rule="evenodd" d="M20.5674 47.0407L16.4023 44.6971V30.1575L20.5674 32.4967V47.0407Z" fill="#0E3992"/>
<path id="Vector_13" fill-rule="evenodd" clip-rule="evenodd" d="M24.732 49.3799L20.5669 47.0407V42.3535L24.732 44.6971V49.3799Z" fill="#042A79"/>
<path id="Vector_14" fill-rule="evenodd" clip-rule="evenodd" d="M26.815 41.182L22.6499 38.8384V26.6423L26.815 28.9859V41.182Z" fill="#042A79"/>
<path id="Vector_15" fill-rule="evenodd" clip-rule="evenodd" d="M22.6495 31.3294L18.4844 28.9858V24.2986L12.2368 20.7833L16.4019 18.4397L22.6495 21.9551V31.3294Z" fill="#0E3992"/>
</g>
</g>
</svg>
